<svg width="54" height="21" viewBox="0 0 54 21" fill="none" xmlns="http://www.w3.org/2000/svg">
<path d="M18.0411 6.96484C20.2149 6.96484 22.0264 8.48926 22.0264 11.9482V11.9619C22.0264 15.2227 20.5157 17.1709 18.0001 17.1709C16.1749 17.1709 14.8077 16.1182 14.5001 14.6279L14.4864 14.5527H16.2364L16.2569 14.6143C16.5235 15.291 17.1251 15.7285 18.0069 15.7285C19.5929 15.7285 20.2559 14.2109 20.3243 12.3447C20.3311 12.2422 20.338 12.1396 20.338 12.0303H20.297C19.9073 12.9326 18.9229 13.6162 17.5899 13.6162C15.6895 13.6162 14.3497 12.249 14.3497 10.3965V10.3828C14.3497 8.39355 15.9151 6.96484 18.0411 6.96484ZM18.0411 12.2559C19.169 12.2559 20.0304 11.4629 20.0304 10.3623V10.3555C20.0304 9.26172 19.169 8.40723 18.0616 8.40723C16.9679 8.40723 16.086 9.25488 16.086 10.3213V10.335C16.086 11.4561 16.92 12.2559 18.0411 12.2559ZM23.9476 10.5469C23.3939 10.5469 22.9564 10.1094 22.9564 9.55566C22.9564 9.00195 23.3939 8.57129 23.9476 8.57129C24.5013 8.57129 24.932 9.00195 24.932 9.55566C24.932 10.1094 24.5013 10.5469 23.9476 10.5469ZM23.9476 15.5645C23.3939 15.5645 22.9564 15.127 22.9564 14.5732C22.9564 14.0195 23.3939 13.5889 23.9476 13.5889C24.5013 13.5889 24.932 14.0195 24.932 14.5732C24.932 15.127 24.5013 15.5645 23.9476 15.5645ZM30.7155 17V15.1064H25.7936V13.6025L29.8883 7.13574H32.3971V13.6572H33.737V15.1064H32.3971V17H30.7155ZM27.3795 13.6982H30.7428V8.46875H30.7018L27.3795 13.6504V13.6982ZM37.0322 17V8.81738H36.9911L34.4413 10.5674V8.94727L37.0185 7.13574H38.7616V17H37.0322Z" fill="black"/>
</svg>
